<?xml version="1.0" encoding="utf-8"?>
<!-- Generator: Adobe Illustrator 25.2.1, SVG Export Plug-In . SVG Version: 6.00 Build 0)  -->
<svg version="1.1" id="Layer_1" xmlns="http://www.w3.org/2000/svg" xmlns:xlink="http://www.w3.org/1999/xlink" x="0px" y="0px"
	 viewBox="0 0 350 131.8" style="enable-background:new 0 0 350 131.8;" xml:space="preserve">
<style type="text/css">
	.st0{fill:#010101;}
</style>
<g>
	<path class="st0" d="M6,89.1h24.2c1.7,14.7,10.1,20.5,27.5,20.5c12.6,0,23.7-4.4,23.7-15.7c0-11.9-11.6-14.3-30.2-18.6
		C29.4,70.3,9.4,64.5,9.4,39.1C9.4,15,29,2.6,56.1,2.6c27.5,0,45.2,13.5,47.1,38H79.5C78.1,28.3,68.6,22.2,56,22.2
		c-13.3,0-22,5.6-22,14.3c0,9.9,8.5,12.8,26.6,16.7c25.1,5.5,45.5,11.4,45.5,37.7c0,24.7-20,38.6-47.4,38.6
		C25.6,129.5,6.8,114.8,6,89.1"/>
</g>
<path class="st0" d="M113,39.2h23.2v87.5H113V39.2z M113,4.8h23.2v20.8H113V4.8z"/>
<g>
	<path class="st0" d="M169.3,51.2h0.5c6-9.4,14-14.3,25.9-14.3c18.1,0,30.2,13.6,30.2,32.8v57.2h-23.2V73c0-9.4-5.5-16-15.2-16
		c-10.2,0-17.7,8.2-17.7,20.1v49.6h-23.2V39.2h22.7V51.2z"/>
	<path class="st0" d="M231.4,83.1c0-26.1,17.1-46.2,43.7-46.2c22.7,0,36.7,13.1,39.8,32.1h-22.7c-1.5-7.7-7.5-13.5-16-13.5
		c-14,0-21.2,10.7-21.2,27.6c0,16.5,6.7,27.6,20.8,27.6c9.4,0,16-4.9,17.6-14.8h22.3c-1.5,18.6-16,33.4-39.4,33.4
		C248.6,129.3,231.4,109.2,231.4,83.1"/>
</g>
<rect x="319.8" y="102" class="st0" width="24.9" height="24.7"/>
</svg>
